Hubballi-Regular_GLYPHS_TEST.ufo
<glyph name="comma" format="1">
  <advance width="230"/>
  <unicode hex="002C"/>
  <outline>
    <contour>
      <point x="134" y="87" type="curve" smooth="yes"/>
      <point x="130" y="98"/>
      <point x="120" y="104"/>
      <point x="109" y="104" type="curve" smooth="yes"/>
      <point x="97" y="104"/>
      <point x="85" y="93"/>
      <point x="85" y="78" type="curve" smooth="yes"/>
      <point x="85" y="68"/>
      <point x="91" y="61"/>
      <point x="91" y="30" type="curve" smooth="yes"/>
      <point x="91" y="-11"/>
      <point x="77" y="-51"/>
      <point x="54" y="-82" type="curve" smooth="yes"/>
      <point x="51" y="-86"/>
      <point x="49" y="-92"/>
      <point x="49" y="-97" type="curve" smooth="yes"/>
      <point x="49" y="-111"/>
      <point x="60" y="-122"/>
      <point x="74" y="-122" type="curve" smooth="yes"/>
      <point x="82" y="-122"/>
      <point x="89" y="-119"/>
      <point x="94" y="-112" type="curve" smooth="yes"/>
      <point x="123" y="-73"/>
      <point x="141" y="-21"/>
      <point x="141" y="30" type="curve" smooth="yes"/>
      <point x="141" y="52"/>
      <point x="138" y="73"/>
    </contour>
  </outline>
</glyph>
<glyph name="D" format="1">
  <advance width="612"/>
  <unicode hex="0044"/>
  <outline>
    <contour>
      <point x="299" y="0" type="line" smooth="yes"/>
      <point x="451" y="0"/>
      <point x="551" y="118"/>
      <point x="551" y="268" type="curve" smooth="yes"/>
      <point x="551" y="426"/>
      <point x="431" y="535"/>
      <point x="299" y="535" type="curve" smooth="yes"/>
      <point x="123" y="535" type="line" smooth="yes"/>
      <point x="109" y="535"/>
      <point x="98" y="524"/>
      <point x="98" y="510" type="curve" smooth="yes"/>
      <point x="98" y="25" type="line" smooth="yes"/>
      <point x="98" y="11"/>
      <point x="109" y="0"/>
      <point x="123" y="0" type="curve" smooth="yes"/>
    </contour>
    <contour>
      <point x="299" y="485" type="line" smooth="yes"/>
      <point x="407" y="485"/>
      <point x="501" y="394"/>
      <point x="501" y="268" type="curve" smooth="yes"/>
      <point x="501" y="148"/>
      <point x="423" y="50"/>
      <point x="299" y="50" type="curve" smooth="yes"/>
      <point x="148" y="50" type="line"/>
      <point x="148" y="485" type="line"/>
    </contour>
  </outline>
</glyph>
<glyph name="H" format="1">
  <advance width="631"/>
  <unicode hex="0048"/>
  <outline>
    <contour>
      <point x="508" y="0" type="curve" smooth="yes"/>
      <point x="522" y="0"/>
      <point x="533" y="11"/>
      <point x="533" y="25" type="curve" smooth="yes"/>
      <point x="533" y="510" type="line" smooth="yes"/>
      <point x="533" y="524"/>
      <point x="522" y="535"/>
      <point x="508" y="535" type="curve" smooth="yes"/>
      <point x="495" y="535"/>
      <point x="483" y="524"/>
      <point x="483" y="510" type="curve" smooth="yes"/>
      <point x="483" y="310" type="line"/>
      <point x="148" y="310" type="line"/>
      <point x="148" y="510" type="line" smooth="yes"/>
      <point x="148" y="524"/>
      <point x="137" y="535"/>
      <point x="123" y="535" type="curve" smooth="yes"/>
      <point x="110" y="535"/>
      <point x="98" y="524"/>
      <point x="98" y="510" type="curve" smooth="yes"/>
      <point x="98" y="25" type="line" smooth="yes"/>
      <point x="98" y="12"/>
      <point x="110" y="0"/>
      <point x="123" y="0" type="curve" smooth="yes"/>
      <point x="137" y="0"/>
      <point x="148" y="11"/>
      <point x="148" y="25" type="curve" smooth="yes"/>
      <point x="148" y="260" type="line"/>
      <point x="483" y="260" type="line"/>
      <point x="483" y="25" type="line" smooth="yes"/>
      <point x="483" y="12"/>
      <point x="495" y="0"/>
    </contour>
  </outline>
</glyph>
<glyph name="sterling" format="1">
  <advance width="456"/>
  <unicode hex="00A3"/>
  <outline>
    <contour>
      <point x="56" y="0" type="curve" smooth="yes"/>
      <point x="370" y="0" type="line" smooth="yes"/>
      <point x="384" y="0"/>
      <point x="395" y="11"/>
      <point x="395" y="25" type="curve" smooth="yes"/>
      <point x="395" y="38"/>
      <point x="384" y="50"/>
      <point x="370" y="50" type="curve" smooth="yes"/>
      <point x="120" y="50" type="line"/>
      <point x="160" y="86" type="line" smooth="yes"/>
      <point x="195" y="117"/>
      <point x="218" y="157"/>
      <point x="218" y="192" type="curve" smooth="yes"/>
      <point x="218" y="202"/>
      <point x="216" y="214"/>
      <point x="213" y="225" type="curve"/>
      <point x="361" y="225" type="line" smooth="yes"/>
      <point x="375" y="225"/>
      <point x="386" y="237"/>
      <point x="386" y="250" type="curve" smooth="yes"/>
      <point x="386" y="264"/>
      <point x="375" y="275"/>
      <point x="361" y="275" type="curve" smooth="yes"/>
      <point x="188" y="275" type="line"/>
      <point x="184" y="282"/>
      <point x="178" y="289"/>
      <point x="173" y="295" type="curve" smooth="yes"/>
      <point x="140" y="334"/>
      <point x="117" y="364"/>
      <point x="117" y="406" type="curve" smooth="yes"/>
      <point x="117" y="451"/>
      <point x="152" y="494"/>
      <point x="214" y="494" type="curve" smooth="yes"/>
      <point x="255" y="494"/>
      <point x="292" y="481"/>
      <point x="324" y="462" type="curve" smooth="yes"/>
      <point x="328" y="460"/>
      <point x="332" y="458"/>
      <point x="337" y="458" type="curve" smooth="yes"/>
      <point x="350" y="458"/>
      <point x="362" y="468"/>
      <point x="362" y="483" type="curve" smooth="yes"/>
      <point x="362" y="491"/>
      <point x="358" y="499"/>
      <point x="350" y="504" type="curve" smooth="yes"/>
      <point x="312" y="529"/>
      <point x="265" y="544"/>
      <point x="214" y="544" type="curve" smooth="yes"/>
      <point x="118" y="544"/>
      <point x="67" y="475"/>
      <point x="67" y="406" type="curve" smooth="yes"/>
      <point x="67" y="356"/>
      <point x="88" y="320"/>
      <point x="125" y="275" type="curve"/>
      <point x="62" y="275" type="line" smooth="yes"/>
      <point x="49" y="275"/>
      <point x="37" y="264"/>
      <point x="37" y="250" type="curve" smooth="yes"/>
      <point x="37" y="237"/>
      <point x="49" y="225"/>
      <point x="62" y="225" type="curve" smooth="yes"/>
      <point x="160" y="225" type="line"/>
      <point x="165" y="213"/>
      <point x="168" y="202"/>
      <point x="168" y="192" type="curve" smooth="yes"/>
      <point x="168" y="169"/>
      <point x="149" y="143"/>
      <point x="126" y="122" type="curve" smooth="yes"/>
      <point x="49" y="52" type="line" smooth="yes"/>
      <point x="36" y="41"/>
      <point x="31" y="36"/>
      <point x="31" y="25" type="curve" smooth="yes"/>
      <point x="31" y="12"/>
      <point x="42" y="0"/>
    </contour>
  </outline>
</glyph>
<glyph name="Adieresis" format="1">
  <advance width="580"/>
  <unicode hex="00C4"/>
  <outline>
    <contour>
      <point x="380" y="710" type="curve" smooth="yes"/>
      <point x="360" y="710"/>
      <point x="341" y="692"/>
      <point x="341" y="662" type="curve" smooth="yes"/>
      <point x="341" y="630"/>
      <point x="360" y="614"/>
      <point x="380" y="614" type="curve" smooth="yes"/>
      <point x="398" y="614"/>
      <point x="418" y="629"/>
      <point x="418" y="662" type="curve" smooth="yes"/>
      <point x="418" y="693"/>
      <point x="398" y="710"/>
    </contour>
    <contour>
      <point x="187" y="710" type="curve" smooth="yes"/>
      <point x="167" y="710"/>
      <point x="147" y="691"/>
      <point x="147" y="662" type="curve" smooth="yes"/>
      <point x="147" y="631"/>
      <point x="167" y="614"/>
      <point x="187" y="614" type="curve" smooth="yes"/>
      <point x="205" y="614"/>
      <point x="225" y="629"/>
      <point x="225" y="662" type="curve" smooth="yes"/>
      <point x="225" y="693"/>
      <point x="205" y="710"/>
    </contour>
    <contour>
      <point x="505" y="0" type="curve" smooth="yes"/>
      <point x="518" y="0"/>
      <point x="530" y="12"/>
      <point x="530" y="25" type="curve" smooth="yes"/>
      <point x="530" y="28"/>
      <point x="529" y="33"/>
      <point x="519" y="57" type="curve" smooth="yes"/>
      <point x="480" y="156"/>
      <point x="382" y="375"/>
      <point x="310" y="530" type="curve" smooth="yes"/>
      <point x="306" y="539"/>
      <point x="296" y="544"/>
      <point x="286" y="544" type="curve" smooth="yes"/>
      <point x="282" y="544" type="line" smooth="yes"/>
      <point x="272" y="544"/>
      <point x="262" y="538"/>
      <point x="258" y="529" type="curve" smooth="yes"/>
      <point x="189" y="376"/>
      <point x="103" y="178"/>
      <point x="58" y="57" type="curve" smooth="yes"/>
      <point x="49" y="34"/>
      <point x="48" y="30"/>
      <point x="48" y="26" type="curve" smooth="yes"/>
      <point x="48" y="11"/>
      <point x="60" y="0"/>
      <point x="72" y="0" type="curve" smooth="yes"/>
      <point x="82" y="0"/>
      <point x="93" y="6"/>
      <point x="97" y="17" type="curve" smooth="yes"/>
      <point x="110" y="53"/>
      <point x="127" y="97"/>
      <point x="146" y="145" type="curve"/>
      <point x="428" y="145" type="line"/>
      <point x="449" y="97"/>
      <point x="468" y="52"/>
      <point x="482" y="16" type="curve" smooth="yes"/>
      <point x="486" y="6"/>
      <point x="495" y="0"/>
    </contour>
    <contour>
      <point x="407" y="195" type="curve"/>
      <point x="167" y="195" type="line"/>
      <point x="204" y="284"/>
      <point x="247" y="380"/>
      <point x="284" y="465" type="curve"/>
      <point x="324" y="381"/>
      <point x="368" y="284"/>
    </contour>
  </outline>
</glyph>
<glyph name="aacute" format="1">
  <advance width="450"/>
  <unicode hex="00E1"/>
  <outline>
    <contour>
      <point x="311" y="584" type="curve" smooth="yes"/>
      <point x="315" y="588"/>
      <point x="317" y="594"/>
      <point x="317" y="599" type="curve" smooth="yes"/>
      <point x="317" y="610"/>
      <point x="306" y="621"/>
      <point x="295" y="621" type="curve" smooth="yes"/>
      <point x="289" y="621"/>
      <point x="283" y="619"/>
      <point x="279" y="614" type="curve" smooth="yes"/>
      <point x="250" y="583"/>
      <point x="223" y="550"/>
      <point x="197" y="519" type="curve" smooth="yes"/>
      <point x="194" y="515"/>
      <point x="192" y="510"/>
      <point x="192" y="505" type="curve" smooth="yes"/>
      <point x="192" y="495"/>
      <point x="202" y="483"/>
      <point x="214" y="483" type="curve" smooth="yes"/>
      <point x="220" y="483"/>
      <point x="227" y="486"/>
      <point x="231" y="491" type="curve" smooth="yes"/>
      <point x="257" y="522"/>
      <point x="284" y="553"/>
    </contour>
    <contour>
      <point x="172" y="50" type="curve" smooth="yes"/>
      <point x="123" y="50"/>
      <point x="100" y="79"/>
      <point x="100" y="106" type="curve" smooth="yes"/>
      <point x="100" y="124"/>
      <point x="105" y="140"/>
      <point x="121" y="156" type="curve" smooth="yes"/>
      <point x="148" y="183"/>
      <point x="191" y="197"/>
      <point x="255" y="197" type="curve" smooth="yes"/>
      <point x="277" y="197"/>
      <point x="299" y="196"/>
      <point x="324" y="194" type="curve"/>
      <point x="324" y="129" type="line"/>
      <point x="282" y="75"/>
      <point x="236" y="50"/>
    </contour>
    <contour>
      <point x="368" y="9" type="curve" smooth="yes"/>
      <point x="373" y="4"/>
      <point x="379" y="1"/>
      <point x="386" y="1" type="curve" smooth="yes"/>
      <point x="399" y="1"/>
      <point x="411" y="12"/>
      <point x="411" y="26" type="curve" smooth="yes"/>
      <point x="411" y="32"/>
      <point x="409" y="38"/>
      <point x="404" y="43" type="curve" smooth="yes"/>
      <point x="384" y="65"/>
      <point x="374" y="93"/>
      <point x="374" y="139" type="curve" smooth="yes"/>
      <point x="374" y="230" type="line" smooth="yes"/>
      <point x="374" y="326"/>
      <point x="324" y="392"/>
      <point x="215" y="392" type="curve" smooth="yes"/>
      <point x="179" y="392"/>
      <point x="137" y="382"/>
      <point x="114" y="375" type="curve" smooth="yes"/>
      <point x="103" y="371"/>
      <point x="97" y="361"/>
      <point x="97" y="350" type="curve" smooth="yes"/>
      <point x="97" y="338"/>
      <point x="110" y="326"/>
      <point x="123" y="326" type="curve" smooth="yes"/>
      <point x="126" y="326"/>
      <point x="134" y="328"/>
      <point x="142" y="331" type="curve" smooth="yes"/>
      <point x="157" y="336"/>
      <point x="188" y="342"/>
      <point x="215" y="342" type="curve" smooth="yes"/>
      <point x="284" y="342"/>
      <point x="318" y="304"/>
      <point x="323" y="244" type="curve"/>
      <point x="299" y="246"/>
      <point x="277" y="247"/>
      <point x="255" y="247" type="curve" smooth="yes"/>
      <point x="173" y="247"/>
      <point x="119" y="225"/>
      <point x="85" y="192" type="curve" smooth="yes"/>
      <point x="59" y="167"/>
      <point x="50" y="138"/>
      <point x="50" y="106" type="curve" smooth="yes"/>
      <point x="50" y="61"/>
      <point x="79" y="0"/>
      <point x="172" y="0" type="curve" smooth="yes"/>
      <point x="237" y="0"/>
      <point x="289" y="21"/>
      <point x="334" y="65" type="curve"/>
      <point x="342" y="42"/>
      <point x="353" y="25"/>
    </contour>
  </outline>
</glyph>
<glyph name="ogonek" format="1">
  <advance width="490"/>
  <unicode hex="02DB"/>
  <outline>
    <contour>
      <point x="283" y="-221" type="curve" smooth="yes"/>
      <point x="295" y="-221"/>
      <point x="305" y="-211"/>
      <point x="305" y="-199" type="curve" smooth="yes"/>
      <point x="305" y="-187"/>
      <point x="295" y="-177"/>
      <point x="283" y="-177" type="curve" smooth="yes"/>
      <point x="234" y="-177"/>
      <point x="187" y="-167"/>
      <point x="187" y="-139" type="curve" smooth="yes"/>
      <point x="187" y="-115"/>
      <point x="208" y="-92"/>
      <point x="282" y="-31" type="curve"/>
      <point x="286" y="-27"/>
      <point x="290" y="-20"/>
      <point x="290" y="-14" type="curve" smooth="yes"/>
      <point x="290" y="21" type="line" smooth="yes"/>
      <point x="290" y="33"/>
      <point x="280" y="43"/>
      <point x="268" y="43" type="curve" smooth="yes"/>
      <point x="256" y="43"/>
      <point x="246" y="33"/>
      <point x="246" y="21" type="curve" smooth="yes"/>
      <point x="246" y="-4" type="line"/>
      <point x="155" y="-78"/>
      <point x="143" y="-110"/>
      <point x="143" y="-139" type="curve" smooth="yes"/>
      <point x="143" y="-181"/>
      <point x="176" y="-221"/>
    </contour>
  </outline>
</glyph>
<glyph name="pi" format="1">
  <advance width="633"/>
  <unicode hex="03C0"/>
  <outline>
    <contour>
      <point x="438" y="0" type="curve" smooth="yes"/>
      <point x="452" y="0"/>
      <point x="463" y="11"/>
      <point x="463" y="25" type="curve" smooth="yes"/>
      <point x="463" y="380" type="line"/>
      <point x="541" y="380" type="line" smooth="yes"/>
      <point x="555" y="380"/>
      <point x="566" y="392"/>
      <point x="566" y="405" type="curve" smooth="yes"/>
      <point x="566" y="419"/>
      <point x="555" y="430"/>
      <point x="541" y="430" type="curve" smooth="yes"/>
      <point x="91" y="430" type="line" smooth="yes"/>
      <point x="78" y="430"/>
      <point x="66" y="419"/>
      <point x="66" y="405" type="curve" smooth="yes"/>
      <point x="66" y="392"/>
      <point x="78" y="380"/>
      <point x="91" y="380" type="curve" smooth="yes"/>
      <point x="173" y="380" type="line"/>
      <point x="173" y="221" type="line" smooth="yes"/>
      <point x="173" y="120"/>
      <point x="153" y="76"/>
      <point x="105" y="46" type="curve" smooth="yes"/>
      <point x="97" y="41"/>
      <point x="93" y="33"/>
      <point x="93" y="25" type="curve" smooth="yes"/>
      <point x="93" y="9"/>
      <point x="106" y="0"/>
      <point x="118" y="0" type="curve" smooth="yes"/>
      <point x="123" y="0"/>
      <point x="127" y="2"/>
      <point x="131" y="4" type="curve" smooth="yes"/>
      <point x="191" y="40"/>
      <point x="223" y="90"/>
      <point x="223" y="221" type="curve" smooth="yes"/>
      <point x="223" y="380" type="line"/>
      <point x="413" y="380" type="line"/>
      <point x="413" y="25" type="line" smooth="yes"/>
      <point x="413" y="12"/>
      <point x="425" y="0"/>
    </contour>
  </outline>
</glyph>
<glyph name="knsignE" format="1">
  <advance width="0"/>
  <unicode hex="0CC6"/>
  <outline>
    <contour>
      <point x="-269" y="410" type="curve" smooth="yes"/>
      <point x="-188" y="410" type="line" smooth="yes"/>
      <point x="-47" y="410"/>
      <point x="-14" y="471"/>
      <point x="-14" y="532" type="curve" smooth="yes"/>
      <point x="-14" y="590"/>
      <point x="-57" y="635"/>
      <point x="-123" y="635" type="curve" smooth="yes"/>
      <point x="-190" y="635"/>
      <point x="-240" y="583"/>
      <point x="-240" y="508" type="curve" smooth="yes"/>
      <point x="-240" y="490"/>
      <point x="-237" y="471"/>
      <point x="-234" y="456" type="curve"/>
      <point x="-269" y="456" type="line" smooth="yes"/>
      <point x="-281" y="456"/>
      <point x="-292" y="445"/>
      <point x="-292" y="433" type="curve" smooth="yes"/>
      <point x="-292" y="421"/>
      <point x="-281" y="410"/>
    </contour>
    <contour>
      <point x="-194" y="508" type="curve" smooth="yes"/>
      <point x="-194" y="553"/>
      <point x="-166" y="589"/>
      <point x="-123" y="589" type="curve" smooth="yes"/>
      <point x="-87" y="589"/>
      <point x="-60" y="566"/>
      <point x="-60" y="532" type="curve" smooth="yes"/>
      <point x="-60" y="487"/>
      <point x="-98" y="456"/>
      <point x="-187" y="456" type="curve"/>
      <point x="-190" y="470"/>
      <point x="-194" y="489"/>
    </contour>
  </outline>
</glyph>
<glyph name="guilsinglright" format="1">
  <advance width="268"/>
  <unicode hex="203A"/>
  <outline>
    <contour>
      <point x="86" y="16" type="curve" smooth="yes"/>
      <point x="94" y="16"/>
      <point x="101" y="19"/>
      <point x="106" y="26" type="curve" smooth="yes"/>
      <point x="217" y="176" type="line" smooth="yes"/>
      <point x="220" y="180"/>
      <point x="222" y="186"/>
      <point x="222" y="191" type="curve" smooth="yes"/>
      <point x="222" y="196" type="line" smooth="yes"/>
      <point x="222" y="201"/>
      <point x="220" y="207"/>
      <point x="217" y="211" type="curve" smooth="yes"/>
      <point x="106" y="361" type="line" smooth="yes"/>
      <point x="101" y="368"/>
      <point x="94" y="371"/>
      <point x="86" y="371" type="curve" smooth="yes"/>
      <point x="72" y="371"/>
      <point x="61" y="359"/>
      <point x="61" y="346" type="curve" smooth="yes"/>
      <point x="61" y="341"/>
      <point x="63" y="335"/>
      <point x="66" y="331" type="curve" smooth="yes"/>
      <point x="168" y="194" type="line"/>
      <point x="66" y="56" type="line" smooth="yes"/>
      <point x="63" y="52"/>
      <point x="61" y="46"/>
      <point x="61" y="41" type="curve" smooth="yes"/>
      <point x="61" y="28"/>
      <point x="72" y="16"/>
    </contour>
  </outline>
</glyph>
<glyph name="cedillacmb" format="1">
  <advance width="0"/>
  <outline>
    <contour>
      <point x="11" y="-137" type="curve" smooth="yes"/>
      <point x="16" y="-133"/>
      <point x="18" y="-127"/>
      <point x="18" y="-121" type="curve" smooth="yes"/>
      <point x="18" y="-109"/>
      <point x="7" y="-99"/>
      <point x="-4" y="-99" type="curve" smooth="yes"/>
      <point x="-10" y="-99"/>
      <point x="-15" y="-101"/>
      <point x="-19" y="-105" type="curve" smooth="yes"/>
      <point x="-46" y="-131"/>
      <point x="-97" y="-181"/>
      <point x="-121" y="-205" type="curve" smooth="yes"/>
      <point x="-126" y="-210"/>
      <point x="-127" y="-215"/>
      <point x="-127" y="-221" type="curve" smooth="yes"/>
      <point x="-127" y="-234"/>
      <point x="-116" y="-243"/>
      <point x="-105" y="-243" type="curve" smooth="yes"/>
      <point x="-99" y="-243"/>
      <point x="-93" y="-241"/>
      <point x="-89" y="-237" type="curve" smooth="yes"/>
      <point x="-67" y="-214"/>
      <point x="-16" y="-163"/>
    </contour>
  </outline>
</glyph>
<glyph name="knDAc2.following" format="1">
  <advance width="523"/>
  <outline>
    <contour>
      <point x="523" y="-376" type="curve" smooth="yes"/>
      <point x="585" y="-376"/>
      <point x="632" y="-336"/>
      <point x="632" y="-275" type="curve" smooth="yes"/>
      <point x="632" y="-213"/>
      <point x="564" y="-106"/>
      <point x="424" y="-106" type="curve" smooth="yes"/>
      <point x="293" y="-106"/>
      <point x="227" y="-212"/>
      <point x="227" y="-275" type="curve" smooth="yes"/>
      <point x="227" y="-339"/>
      <point x="268" y="-376"/>
      <point x="330" y="-376" type="curve" smooth="yes"/>
      <point x="366" y="-376"/>
      <point x="396" y="-364"/>
      <point x="423" y="-337" type="curve"/>
      <point x="453" y="-362"/>
      <point x="479" y="-376"/>
    </contour>
    <contour>
      <point x="424" y="-148" type="curve" smooth="yes"/>
      <point x="530" y="-148"/>
      <point x="590" y="-225"/>
      <point x="590" y="-275" type="curve" smooth="yes"/>
      <point x="590" y="-312"/>
      <point x="559" y="-334"/>
      <point x="523" y="-334" type="curve" smooth="yes"/>
      <point x="484" y="-334"/>
      <point x="464" y="-319"/>
      <point x="438" y="-293" type="curve" smooth="yes"/>
      <point x="434" y="-290"/>
      <point x="428" y="-287"/>
      <point x="423" y="-287" type="curve" smooth="yes"/>
      <point x="421" y="-287" type="line" smooth="yes"/>
      <point x="415" y="-287"/>
      <point x="409" y="-290"/>
      <point x="405" y="-295" type="curve" smooth="yes"/>
      <point x="384" y="-322"/>
      <point x="360" y="-334"/>
      <point x="330" y="-334" type="curve" smooth="yes"/>
      <point x="294" y="-334"/>
      <point x="269" y="-313"/>
      <point x="269" y="-275" type="curve" smooth="yes"/>
      <point x="269" y="-226"/>
      <point x="325" y="-148"/>
    </contour>
  </outline>
</glyph>
<glyph name="knDHAA" format="1">
  <advance width="1077"/>
  <outline>
    <contour>
      <point x="877" y="-4" type="curve" smooth="yes"/>
      <point x="950" y="-4"/>
      <point x="1010" y="55"/>
      <point x="1010" y="167" type="curve" smooth="yes"/>
      <point x="1010" y="353"/>
      <point x="895" y="456"/>
      <point x="736" y="456" type="curve" smooth="yes"/>
      <point x="111" y="456" type="line" smooth="yes"/>
      <point x="99" y="456"/>
      <point x="88" y="445"/>
      <point x="88" y="433" type="curve" smooth="yes"/>
      <point x="88" y="421"/>
      <point x="99" y="410"/>
      <point x="111" y="410" type="curve" smooth="yes"/>
      <point x="231" y="410" type="line"/>
      <point x="141" y="346"/>
      <point x="83" y="254"/>
      <point x="83" y="168" type="curve" smooth="yes"/>
      <point x="83" y="59"/>
      <point x="146" y="0"/>
      <point x="231" y="0" type="curve" smooth="yes"/>
      <point x="294" y="0"/>
      <point x="337" y="27"/>
      <point x="373" y="83" type="curve"/>
      <point x="410" y="25"/>
      <point x="452" y="0"/>
      <point x="519" y="0" type="curve" smooth="yes"/>
      <point x="602" y="0"/>
      <point x="668" y="59"/>
      <point x="668" y="168" type="curve" smooth="yes"/>
      <point x="668" y="254"/>
      <point x="608" y="346"/>
      <point x="514" y="410" type="curve"/>
      <point x="736" y="410" type="line" smooth="yes"/>
      <point x="852" y="410"/>
      <point x="940" y="342"/>
      <point x="960" y="221" type="curve"/>
      <point x="940" y="226"/>
      <point x="918" y="229"/>
      <point x="898" y="229" type="curve" smooth="yes"/>
      <point x="807" y="229"/>
      <point x="765" y="171"/>
      <point x="765" y="106" type="curve" smooth="yes"/>
      <point x="765" y="48"/>
      <point x="806" y="-4"/>
    </contour>
    <contour>
      <point x="519" y="46" type="curve" smooth="yes"/>
      <point x="459" y="46"/>
      <point x="427" y="75"/>
      <point x="395" y="135" type="curve" smooth="yes"/>
      <point x="391" y="142"/>
      <point x="383" y="147"/>
      <point x="375" y="147" type="curve" smooth="yes"/>
      <point x="370" y="147" type="line" smooth="yes"/>
      <point x="362" y="147"/>
      <point x="353" y="141"/>
      <point x="350" y="135" type="curve" smooth="yes"/>
      <point x="320" y="77"/>
      <point x="287" y="46"/>
      <point x="231" y="46" type="curve" smooth="yes"/>
      <point x="170" y="46"/>
      <point x="129" y="93"/>
      <point x="129" y="168" type="curve" smooth="yes"/>
      <point x="129" y="262"/>
      <point x="211" y="358"/>
      <point x="323" y="410" type="curve"/>
      <point x="421" y="410" type="line"/>
      <point x="536" y="358"/>
      <point x="622" y="261"/>
      <point x="622" y="168" type="curve" smooth="yes"/>
      <point x="622" y="93"/>
      <point x="580" y="46"/>
    </contour>
    <contour>
      <point x="877" y="42" type="curve" smooth="yes"/>
      <point x="836" y="42"/>
      <point x="811" y="72"/>
      <point x="811" y="106" type="curve" smooth="yes"/>
      <point x="811" y="149"/>
      <point x="841" y="183"/>
      <point x="898" y="183" type="curve" smooth="yes"/>
      <point x="921" y="183"/>
      <point x="944" y="178"/>
      <point x="964" y="172" type="curve"/>
      <point x="964" y="167" type="line" smooth="yes"/>
      <point x="964" y="93"/>
      <point x="930" y="42"/>
    </contour>
    <contour>
      <point x="396" y="-93" type="line" smooth="yes"/>
      <point x="396" y="-81"/>
      <point x="385" y="-70"/>
      <point x="373" y="-70" type="curve" smooth="yes"/>
      <point x="361" y="-70"/>
      <point x="350" y="-81"/>
      <point x="350" y="-93" type="curve" smooth="yes"/>
      <point x="350" y="-196" type="line" smooth="yes"/>
      <point x="350" y="-208"/>
      <point x="361" y="-219"/>
      <point x="373" y="-219" type="curve" smooth="yes"/>
      <point x="385" y="-219"/>
      <point x="396" y="-208"/>
      <point x="396" y="-196" type="curve" smooth="yes"/>
    </contour>
  </outline>
</glyph>
<glyph name="knDHAc2.following" format="1">
  <advance width="523"/>
  <outline>
    <contour>
      <point x="522" y="-376" type="curve" smooth="yes"/>
      <point x="584" y="-376"/>
      <point x="631" y="-336"/>
      <point x="631" y="-275" type="curve" smooth="yes"/>
      <point x="631" y="-213"/>
      <point x="563" y="-106"/>
      <point x="423" y="-106" type="curve" smooth="yes"/>
      <point x="292" y="-106"/>
      <point x="226" y="-212"/>
      <point x="226" y="-275" type="curve" smooth="yes"/>
      <point x="226" y="-339"/>
      <point x="267" y="-376"/>
      <point x="329" y="-376" type="curve" smooth="yes"/>
      <point x="365" y="-376"/>
      <point x="395" y="-364"/>
      <point x="422" y="-337" type="curve"/>
      <point x="452" y="-362"/>
      <point x="478" y="-376"/>
    </contour>
    <contour>
      <point x="423" y="-148" type="curve" smooth="yes"/>
      <point x="529" y="-148"/>
      <point x="589" y="-225"/>
      <point x="589" y="-275" type="curve" smooth="yes"/>
      <point x="589" y="-312"/>
      <point x="558" y="-334"/>
      <point x="522" y="-334" type="curve" smooth="yes"/>
      <point x="483" y="-334"/>
      <point x="463" y="-319"/>
      <point x="437" y="-293" type="curve" smooth="yes"/>
      <point x="433" y="-290"/>
      <point x="427" y="-287"/>
      <point x="422" y="-287" type="curve" smooth="yes"/>
      <point x="420" y="-287" type="line" smooth="yes"/>
      <point x="414" y="-287"/>
      <point x="408" y="-290"/>
      <point x="404" y="-295" type="curve" smooth="yes"/>
      <point x="383" y="-322"/>
      <point x="359" y="-334"/>
      <point x="329" y="-334" type="curve" smooth="yes"/>
      <point x="293" y="-334"/>
      <point x="268" y="-313"/>
      <point x="268" y="-275" type="curve" smooth="yes"/>
      <point x="268" y="-226"/>
      <point x="324" y="-148"/>
    </contour>
    <contour>
      <point x="446" y="-429" type="line" smooth="yes"/>
      <point x="446" y="-418"/>
      <point x="436" y="-408"/>
      <point x="425" y="-408" type="curve" smooth="yes"/>
      <point x="414" y="-408"/>
      <point x="404" y="-418"/>
      <point x="404" y="-429" type="curve" smooth="yes"/>
      <point x="404" y="-495" type="line" smooth="yes"/>
      <point x="404" y="-506"/>
      <point x="414" y="-516"/>
      <point x="425" y="-516" type="curve" smooth="yes"/>
      <point x="436" y="-516"/>
      <point x="446" y="-506"/>
      <point x="446" y="-495" type="curve" smooth="yes"/>
    </contour>
  </outline>
</glyph>
<glyph name="knGI" format="1">
  <advance width="590"/>
  <outline>
    <contour>
      <point x="464" y="0" type="curve" smooth="yes"/>
      <point x="473" y="0"/>
      <point x="482" y="5"/>
      <point x="486" y="13" type="curve" smooth="yes"/>
      <point x="509" y="61"/>
      <point x="523" y="107"/>
      <point x="523" y="174" type="curve" smooth="yes"/>
      <point x="523" y="199"/>
      <point x="519" y="224"/>
      <point x="513" y="250" type="curve"/>
      <point x="513" y="253" type="line" smooth="yes"/>
      <point x="513" y="416"/>
      <point x="493" y="467"/>
      <point x="442" y="518" type="curve" smooth="yes"/>
      <point x="400" y="560"/>
      <point x="343" y="589"/>
      <point x="265" y="589" type="curve" smooth="yes"/>
      <point x="118" y="589"/>
      <point x="72" y="512"/>
      <point x="72" y="448" type="curve" smooth="yes"/>
      <point x="72" y="412"/>
      <point x="87" y="375"/>
      <point x="122" y="339" type="curve"/>
      <point x="90" y="293"/>
      <point x="72" y="236"/>
      <point x="72" y="176" type="curve" smooth="yes"/>
      <point x="72" y="111"/>
      <point x="86" y="59"/>
      <point x="110" y="12" type="curve" smooth="yes"/>
      <point x="114" y="4"/>
      <point x="122" y="0"/>
      <point x="130" y="0" type="curve" smooth="yes"/>
      <point x="143" y="0"/>
      <point x="153" y="12"/>
      <point x="153" y="23" type="curve" smooth="yes"/>
      <point x="153" y="27"/>
      <point x="152" y="31"/>
      <point x="150" y="34" type="curve" smooth="yes"/>
      <point x="129" y="75"/>
      <point x="118" y="119"/>
      <point x="118" y="176" type="curve" smooth="yes"/>
      <point x="118" y="286"/>
      <point x="192" y="394"/>
      <point x="295" y="394" type="curve" smooth="yes"/>
      <point x="396" y="394"/>
      <point x="477" y="283"/>
      <point x="477" y="174" type="curve" smooth="yes"/>
      <point x="477" y="114"/>
      <point x="465" y="79"/>
      <point x="453" y="53" type="curve" smooth="yes"/>
      <point x="443" y="32"/>
      <point x="442" y="27"/>
      <point x="442" y="24" type="curve" smooth="yes"/>
      <point x="442" y="12"/>
      <point x="453" y="0"/>
    </contour>
    <contour>
      <point x="295" y="440" type="curve" smooth="yes"/>
      <point x="240" y="440"/>
      <point x="190" y="415"/>
      <point x="151" y="376" type="curve"/>
      <point x="130" y="399"/>
      <point x="118" y="423"/>
      <point x="118" y="448" type="curve" smooth="yes"/>
      <point x="118" y="496"/>
      <point x="166" y="543"/>
      <point x="265" y="543" type="curve" smooth="yes"/>
      <point x="329" y="543"/>
      <point x="376" y="520"/>
      <point x="410" y="486" type="curve" smooth="yes"/>
      <point x="443" y="453"/>
      <point x="458" y="419"/>
      <point x="464" y="347" type="curve"/>
      <point x="422" y="403"/>
      <point x="361" y="440"/>
    </contour>
  </outline>
</glyph>
<glyph name="knHUU" format="1">
  <advance width="1391"/>
  <outline>
    <contour>
      <point x="1191" y="-4" type="curve" smooth="yes"/>
      <point x="1264" y="-4"/>
      <point x="1324" y="55"/>
      <point x="1324" y="167" type="curve" smooth="yes"/>
      <point x="1324" y="354"/>
      <point x="1185" y="456"/>
      <point x="1075" y="456" type="curve" smooth="yes"/>
      <point x="966" y="456"/>
      <point x="910" y="366"/>
      <point x="910" y="288" type="curve" smooth="yes"/>
      <point x="910" y="228"/>
      <point x="935" y="178"/>
      <point x="935" y="125" type="curve" smooth="yes"/>
      <point x="935" y="78"/>
      <point x="910" y="46"/>
      <point x="857" y="46" type="curve" smooth="yes"/>
      <point x="812" y="46"/>
      <point x="767" y="77"/>
      <point x="724" y="142" type="curve" smooth="yes"/>
      <point x="716" y="154" type="line"/>
      <point x="714" y="232"/>
      <point x="655" y="303"/>
      <point x="553" y="303" type="curve" smooth="yes"/>
      <point x="494" y="303"/>
      <point x="447" y="278"/>
      <point x="418" y="242" type="curve"/>
      <point x="418" y="410" type="line"/>
      <point x="555" y="410" type="line" smooth="yes"/>
      <point x="638" y="410"/>
      <point x="686" y="440"/>
      <point x="723" y="499" type="curve" smooth="yes"/>
      <point x="725" y="503"/>
      <point x="726" y="507"/>
      <point x="726" y="511" type="curve" smooth="yes"/>
      <point x="726" y="523"/>
      <point x="716" y="534"/>
      <point x="703" y="534" type="curve" smooth="yes"/>
      <point x="695" y="534"/>
      <point x="688" y="530"/>
      <point x="683" y="523" type="curve" smooth="yes"/>
      <point x="655" y="478"/>
      <point x="618" y="456"/>
      <point x="555" y="456" type="curve" smooth="yes"/>
      <point x="114" y="456" type="line" smooth="yes"/>
      <point x="102" y="456"/>
      <point x="91" y="445"/>
      <point x="91" y="433" type="curve" smooth="yes"/>
      <point x="91" y="421"/>
      <point x="102" y="410"/>
      <point x="114" y="410" type="curve" smooth="yes"/>
      <point x="372" y="410" type="line"/>
      <point x="372" y="243" type="line"/>
      <point x="343" y="279"/>
      <point x="296" y="303"/>
      <point x="235" y="303" type="curve" smooth="yes"/>
      <point x="136" y="303"/>
      <point x="74" y="229"/>
      <point x="74" y="150" type="curve" smooth="yes"/>
      <point x="74" y="68"/>
      <point x="135" y="-4"/>
      <point x="235" y="-4" type="curve" smooth="yes"/>
      <point x="316" y="-4"/>
      <point x="373" y="40"/>
      <point x="395" y="97" type="curve"/>
      <point x="418" y="40"/>
      <point x="476" y="-4"/>
      <point x="553" y="-4" type="curve" smooth="yes"/>
      <point x="631" y="-4"/>
      <point x="683" y="36"/>
      <point x="705" y="90" type="curve"/>
      <point x="752" y="29"/>
      <point x="804" y="0"/>
      <point x="857" y="0" type="curve" smooth="yes"/>
      <point x="940" y="0"/>
      <point x="981" y="50"/>
      <point x="981" y="125" type="curve" smooth="yes"/>
      <point x="981" y="178"/>
      <point x="956" y="228"/>
      <point x="956" y="288" type="curve" smooth="yes"/>
      <point x="956" y="344"/>
      <point x="996" y="410"/>
      <point x="1075" y="410" type="curve" smooth="yes"/>
      <point x="1155" y="410"/>
      <point x="1250" y="341"/>
      <point x="1273" y="221" type="curve"/>
      <point x="1253" y="226"/>
      <point x="1232" y="229"/>
      <point x="1212" y="229" type="curve" smooth="yes"/>
      <point x="1121" y="229"/>
      <point x="1079" y="171"/>
      <point x="1079" y="106" type="curve" smooth="yes"/>
      <point x="1079" y="48"/>
      <point x="1120" y="-4"/>
    </contour>
    <contour>
      <point x="670" y="150" type="curve" smooth="yes"/>
      <point x="670" y="92"/>
      <point x="626" y="42"/>
      <point x="553" y="42" type="curve" smooth="yes"/>
      <point x="483" y="42"/>
      <point x="431" y="91"/>
      <point x="431" y="150" type="curve" smooth="yes"/>
      <point x="431" y="207"/>
      <point x="482" y="257"/>
      <point x="553" y="257" type="curve" smooth="yes"/>
      <point x="625" y="257"/>
      <point x="670" y="207"/>
    </contour>
    <contour>
      <point x="359" y="150" type="curve" smooth="yes"/>
      <point x="359" y="91"/>
      <point x="308" y="42"/>
      <point x="235" y="42" type="curve" smooth="yes"/>
      <point x="165" y="42"/>
      <point x="120" y="92"/>
      <point x="120" y="150" type="curve" smooth="yes"/>
      <point x="120" y="207"/>
      <point x="166" y="257"/>
      <point x="235" y="257" type="curve" smooth="yes"/>
      <point x="310" y="257"/>
      <point x="359" y="207"/>
    </contour>
    <contour>
      <point x="1191" y="42" type="curve" smooth="yes"/>
      <point x="1150" y="42"/>
      <point x="1125" y="72"/>
      <point x="1125" y="106" type="curve" smooth="yes"/>
      <point x="1125" y="149"/>
      <point x="1155" y="183"/>
      <point x="1212" y="183" type="curve" smooth="yes"/>
      <point x="1235" y="183"/>
      <point x="1258" y="178"/>
      <point x="1278" y="172" type="curve"/>
      <point x="1278" y="167" type="line" smooth="yes"/>
      <point x="1278" y="93"/>
      <point x="1244" y="42"/>
    </contour>
  </outline>
</glyph>
<glyph name="knJHA.base" format="1">
  <advance width="1212"/>
  <outline>
    <contour>
      <point x="146" y="223" type="curve" smooth="yes"/>
      <point x="146" y="322"/>
      <point x="227" y="410"/>
      <point x="333" y="410" type="curve" smooth="yes"/>
      <point x="441" y="410"/>
      <point x="516" y="320"/>
      <point x="516" y="223" type="curve" smooth="yes"/>
      <point x="516" y="121"/>
      <point x="444" y="42"/>
      <point x="331" y="42" type="curve" smooth="yes"/>
      <point x="220" y="42"/>
      <point x="146" y="119"/>
    </contour>
    <contour>
      <point x="704" y="0" type="curve" smooth="yes"/>
      <point x="777" y="0"/>
      <point x="826" y="33"/>
      <point x="850" y="85" type="curve"/>
      <point x="905" y="22"/>
      <point x="957" y="0"/>
      <point x="1015" y="0" type="curve" smooth="yes"/>
      <point x="1121" y="0"/>
      <point x="1177" y="69"/>
      <point x="1177" y="169" type="curve" smooth="yes"/>
      <point x="1177" y="255"/>
      <point x="1129" y="357"/>
      <point x="1065" y="427" type="curve" smooth="yes"/>
      <point x="1063" y="429"/>
      <point x="1060" y="432"/>
      <point x="1057" y="435" type="curve"/>
      <point x="1057" y="445"/>
      <point x="1046" y="456"/>
      <point x="1034" y="456" type="curve" smooth="yes"/>
      <point x="964" y="456" type="line" smooth="yes"/>
      <point x="952" y="456"/>
      <point x="941" y="445"/>
      <point x="941" y="433" type="curve" smooth="yes"/>
      <point x="941" y="421"/>
      <point x="952" y="410"/>
      <point x="964" y="410" type="curve" smooth="yes"/>
      <point x="1017" y="410" type="line"/>
      <point x="1023" y="404"/>
      <point x="1029" y="399"/>
      <point x="1031" y="397" type="curve"/>
      <point x="1087" y="335"/>
      <point x="1131" y="245"/>
      <point x="1131" y="169" type="curve" smooth="yes"/>
      <point x="1131" y="97"/>
      <point x="1093" y="46"/>
      <point x="1015" y="46" type="curve" smooth="yes"/>
      <point x="961" y="46"/>
      <point x="916" y="72"/>
      <point x="864" y="139" type="curve"/>
      <point x="865" y="149"/>
      <point x="866" y="159"/>
      <point x="866" y="169" type="curve" smooth="yes"/>
      <point x="866" y="258"/>
      <point x="814" y="363"/>
      <point x="754" y="427" type="curve" smooth="yes"/>
      <point x="749" y="432"/>
      <point x="744" y="435"/>
      <point x="737" y="435" type="curve" smooth="yes"/>
      <point x="725" y="435"/>
      <point x="714" y="425"/>
      <point x="714" y="412" type="curve" smooth="yes"/>
      <point x="714" y="407"/>
      <point x="716" y="401"/>
      <point x="720" y="397" type="curve" smooth="yes"/>
      <point x="775" y="337"/>
      <point x="820" y="245"/>
      <point x="820" y="169" type="curve" smooth="yes"/>
      <point x="820" y="97"/>
      <point x="782" y="46"/>
      <point x="704" y="46" type="curve" smooth="yes"/>
      <point x="652" y="46"/>
      <point x="600" y="77"/>
      <point x="549" y="144" type="curve"/>
      <point x="558" y="168"/>
      <point x="562" y="195"/>
      <point x="562" y="223" type="curve" smooth="yes"/>
      <point x="562" y="297"/>
      <point x="527" y="367"/>
      <point x="469" y="410" type="curve"/>
      <point x="542" y="414"/>
      <point x="586" y="444"/>
      <point x="620" y="499" type="curve" smooth="yes"/>
      <point x="622" y="503"/>
      <point x="623" y="507"/>
      <point x="623" y="511" type="curve" smooth="yes"/>
      <point x="623" y="523"/>
      <point x="613" y="534"/>
      <point x="600" y="534" type="curve" smooth="yes"/>
      <point x="592" y="534"/>
      <point x="585" y="530"/>
      <point x="580" y="523" type="curve" smooth="yes"/>
      <point x="552" y="478"/>
      <point x="515" y="456"/>
      <point x="452" y="456" type="curve" smooth="yes"/>
      <point x="94" y="456" type="line" smooth="yes"/>
      <point x="82" y="456"/>
      <point x="71" y="445"/>
      <point x="71" y="433" type="curve" smooth="yes"/>
      <point x="71" y="421"/>
      <point x="82" y="410"/>
      <point x="94" y="410" type="curve" smooth="yes"/>
      <point x="195" y="410" type="line"/>
      <point x="137" y="367"/>
      <point x="100" y="297"/>
      <point x="100" y="223" type="curve" smooth="yes"/>
      <point x="100" y="93"/>
      <point x="192" y="-4"/>
      <point x="331" y="-4" type="curve" smooth="yes"/>
      <point x="420" y="-4"/>
      <point x="489" y="36"/>
      <point x="528" y="97" type="curve"/>
      <point x="585" y="28"/>
      <point x="645" y="0"/>
    </contour>
    <contour>
      <point x="865" y="-93" type="line" smooth="yes"/>
      <point x="865" y="-81"/>
      <point x="854" y="-70"/>
      <point x="842" y="-70" type="curve" smooth="yes"/>
      <point x="830" y="-70"/>
      <point x="819" y="-81"/>
      <point x="819" y="-93" type="curve" smooth="yes"/>
      <point x="819" y="-196" type="line" smooth="yes"/>
      <point x="819" y="-208"/>
      <point x="830" y="-219"/>
      <point x="842" y="-219" type="curve" smooth="yes"/>
      <point x="854" y="-219"/>
      <point x="865" y="-208"/>
      <point x="865" y="-196" type="curve" smooth="yes"/>
    </contour>
  </outline>
</glyph>
<glyph name="knKHA.base" format="1">
  <advance width="731"/>
  <outline>
    <contour>
      <point x="193" y="311" type="curve" smooth="yes"/>
      <point x="161" y="311"/>
      <point x="134" y="334"/>
      <point x="134" y="365" type="curve" smooth="yes"/>
      <point x="134" y="395"/>
      <point x="161" y="424"/>
      <point x="208" y="424" type="curve" smooth="yes"/>
      <point x="225" y="424"/>
      <point x="241" y="422"/>
      <point x="256" y="419" type="curve"/>
      <point x="260" y="407"/>
      <point x="265" y="391"/>
      <point x="265" y="373" type="curve" smooth="yes"/>
      <point x="265" y="335"/>
      <point x="235" y="311"/>
    </contour>
    <contour>
      <point x="208" y="42" type="curve" smooth="yes"/>
      <point x="153" y="42"/>
      <point x="123" y="67"/>
      <point x="123" y="97" type="curve" smooth="yes"/>
      <point x="123" y="124"/>
      <point x="153" y="152"/>
      <point x="197" y="152" type="curve" smooth="yes"/>
      <point x="247" y="152"/>
      <point x="295" y="130"/>
      <point x="339" y="98" type="curve"/>
      <point x="307" y="65"/>
      <point x="263" y="42"/>
    </contour>
    <contour>
      <point x="556" y="0" type="curve" smooth="yes"/>
      <point x="639" y="0"/>
      <point x="707" y="56"/>
      <point x="707" y="175" type="curve" smooth="yes"/>
      <point x="707" y="279"/>
      <point x="655" y="374"/>
      <point x="588" y="445" type="curve" smooth="yes"/>
      <point x="583" y="450"/>
      <point x="577" y="456"/>
      <point x="569" y="456" type="curve" smooth="yes"/>
      <point x="476" y="456" type="line" smooth="yes"/>
      <point x="464" y="456"/>
      <point x="453" y="445"/>
      <point x="453" y="433" type="curve" smooth="yes"/>
      <point x="453" y="421"/>
      <point x="464" y="410"/>
      <point x="476" y="410" type="curve" smooth="yes"/>
      <point x="559" y="410" type="line"/>
      <point x="617" y="350"/>
      <point x="661" y="265"/>
      <point x="661" y="175" type="curve" smooth="yes"/>
      <point x="661" y="92"/>
      <point x="617" y="46"/>
      <point x="556" y="46" type="curve" smooth="yes"/>
      <point x="500" y="46"/>
      <point x="454" y="65"/>
      <point x="403" y="107" type="curve"/>
      <point x="428" y="148"/>
      <point x="442" y="195"/>
      <point x="442" y="238" type="curve" smooth="yes"/>
      <point x="442" y="366"/>
      <point x="347" y="470"/>
      <point x="208" y="470" type="curve" smooth="yes"/>
      <point x="123" y="470"/>
      <point x="88" y="413"/>
      <point x="88" y="365" type="curve" smooth="yes"/>
      <point x="88" y="310"/>
      <point x="133" y="265"/>
      <point x="193" y="265" type="curve" smooth="yes"/>
      <point x="267" y="265"/>
      <point x="311" y="311"/>
      <point x="311" y="373" type="curve" smooth="yes"/>
      <point x="311" y="381"/>
      <point x="310" y="389"/>
      <point x="309" y="397" type="curve"/>
      <point x="363" y="364"/>
      <point x="396" y="305"/>
      <point x="396" y="238" type="curve" smooth="yes"/>
      <point x="396" y="205"/>
      <point x="386" y="168"/>
      <point x="366" y="135" type="curve"/>
      <point x="314" y="173"/>
      <point x="256" y="198"/>
      <point x="197" y="198" type="curve" smooth="yes"/>
      <point x="115" y="198"/>
      <point x="77" y="140"/>
      <point x="77" y="97" type="curve" smooth="yes"/>
      <point x="77" y="51"/>
      <point x="107" y="-4"/>
      <point x="208" y="-4" type="curve" smooth="yes"/>
      <point x="278" y="-4"/>
      <point x="335" y="26"/>
      <point x="374" y="70" type="curve"/>
      <point x="435" y="21"/>
      <point x="491" y="0"/>
    </contour>
  </outline>
</glyph>
<glyph name="knMAc2" format="1">
  <advance width="111"/>
  <outline>
    <contour>
      <point x="87" y="-248" type="curve" smooth="yes"/>
      <point x="37" y="-248"/>
      <point x="16" y="-223"/>
      <point x="16" y="-191" type="curve" smooth="yes"/>
      <point x="16" y="-181"/>
      <point x="17" y="-171"/>
      <point x="19" y="-162" type="curve"/>
      <point x="33" y="-159"/>
      <point x="49" y="-158"/>
      <point x="65" y="-158" type="curve" smooth="yes"/>
      <point x="112" y="-158"/>
      <point x="152" y="-174"/>
      <point x="152" y="-204" type="curve" smooth="yes"/>
      <point x="152" y="-231"/>
      <point x="122" y="-248"/>
    </contour>
    <contour>
      <point x="79" y="-400" type="curve" smooth="yes"/>
      <point x="79" y="-387"/>
      <point x="71" y="-380"/>
      <point x="60" y="-379" type="curve" smooth="yes"/>
      <point x="-49" y="-371"/>
      <point x="-101" y="-328"/>
      <point x="-101" y="-268" type="curve" smooth="yes"/>
      <point x="-101" y="-228"/>
      <point x="-73" y="-193"/>
      <point x="-25" y="-174" type="curve"/>
      <point x="-26" y="-179"/>
      <point x="-26" y="-185"/>
      <point x="-26" y="-191" type="curve" smooth="yes"/>
      <point x="-26" y="-241"/>
      <point x="1" y="-290"/>
      <point x="87" y="-290" type="curve" smooth="yes"/>
      <point x="156" y="-290"/>
      <point x="194" y="-249"/>
      <point x="194" y="-204" type="curve" smooth="yes"/>
      <point x="194" y="-160"/>
      <point x="156" y="-116"/>
      <point x="65" y="-116" type="curve" smooth="yes"/>
      <point x="54" y="-116"/>
      <point x="43" y="-116"/>
      <point x="33" y="-117" type="curve"/>
      <point x="49" y="-76"/>
      <point x="71" y="-37"/>
      <point x="71" y="9" type="curve" smooth="yes"/>
      <point x="71" y="25"/>
      <point x="69" y="43"/>
      <point x="67" y="51" type="curve" smooth="yes"/>
      <point x="64" y="60"/>
      <point x="56" y="66"/>
      <point x="47" y="66" type="curve" smooth="yes"/>
      <point x="37" y="66"/>
      <point x="26" y="56"/>
      <point x="26" y="45" type="curve" smooth="yes"/>
      <point x="26" y="36"/>
      <point x="29" y="29"/>
      <point x="29" y="9" type="curve" smooth="yes"/>
      <point x="29" y="-39"/>
      <point x="4" y="-81"/>
      <point x="-12" y="-125" type="curve"/>
      <point x="-100" y="-147"/>
      <point x="-143" y="-207"/>
      <point x="-143" y="-268" type="curve" smooth="yes"/>
      <point x="-143" y="-344"/>
      <point x="-79" y="-419"/>
      <point x="59" y="-419" type="curve" smooth="yes"/>
      <point x="73" y="-419"/>
      <point x="79" y="-411"/>
    </contour>
  </outline>
</glyph>
<glyph name="knNYU" format="1">
  <advance width="1192"/>
  <outline>
    <contour>
      <point x="594" y="-23" type="curve" smooth="yes"/>
      <point x="594" y="-19"/>
      <point x="590" y="-8"/>
      <point x="580" y="18" type="curve" smooth="yes"/>
      <point x="568" y="49"/>
      <point x="553" y="76"/>
      <point x="537" y="101" type="curve"/>
      <point x="606" y="162"/>
      <point x="647" y="247"/>
      <point x="647" y="312" type="curve" smooth="yes"/>
      <point x="647" y="320"/>
      <point x="647" y="328"/>
      <point x="646" y="336" type="curve"/>
      <point x="669" y="375"/>
      <point x="701" y="410"/>
      <point x="748" y="410" type="curve" smooth="yes"/>
      <point x="797" y="410"/>
      <point x="815" y="374"/>
      <point x="815" y="346" type="curve" smooth="yes"/>
      <point x="815" y="301"/>
      <point x="793" y="241"/>
      <point x="793" y="176" type="curve" smooth="yes"/>
      <point x="793" y="63"/>
      <point x="848" y="0"/>
      <point x="963" y="0" type="curve" smooth="yes"/>
      <point x="1069" y="0"/>
      <point x="1125" y="69"/>
      <point x="1125" y="169" type="curve" smooth="yes"/>
      <point x="1125" y="255"/>
      <point x="1077" y="357"/>
      <point x="1013" y="427" type="curve" smooth="yes"/>
      <point x="1009" y="432"/>
      <point x="1003" y="435"/>
      <point x="996" y="435" type="curve" smooth="yes"/>
      <point x="983" y="435"/>
      <point x="973" y="425"/>
      <point x="973" y="412" type="curve" smooth="yes"/>
      <point x="973" y="407"/>
      <point x="975" y="401"/>
      <point x="979" y="397" type="curve" smooth="yes"/>
      <point x="1035" y="335"/>
      <point x="1079" y="245"/>
      <point x="1079" y="169" type="curve" smooth="yes"/>
      <point x="1079" y="97"/>
      <point x="1041" y="46"/>
      <point x="963" y="46" type="curve" smooth="yes"/>
      <point x="878" y="46"/>
      <point x="839" y="93"/>
      <point x="839" y="176" type="curve" smooth="yes"/>
      <point x="839" y="241"/>
      <point x="861" y="301"/>
      <point x="861" y="346" type="curve" smooth="yes"/>
      <point x="861" y="394"/>
      <point x="831" y="456"/>
      <point x="748" y="456" type="curve" smooth="yes"/>
      <point x="699" y="456"/>
      <point x="660" y="431"/>
      <point x="629" y="393" type="curve"/>
      <point x="606" y="437"/>
      <point x="562" y="462"/>
      <point x="508" y="462" type="curve" smooth="yes"/>
      <point x="442" y="462"/>
      <point x="397" y="426"/>
      <point x="358" y="366" type="curve"/>
      <point x="318" y="425"/>
      <point x="268" y="463"/>
      <point x="199" y="463" type="curve" smooth="yes"/>
      <point x="116" y="463"/>
      <point x="65" y="402"/>
      <point x="65" y="328" type="curve" smooth="yes"/>
      <point x="65" y="300"/>
      <point x="73" y="272"/>
      <point x="91" y="242" type="curve" smooth="yes"/>
      <point x="96" y="235"/>
      <point x="103" y="231"/>
      <point x="111" y="231" type="curve" smooth="yes"/>
      <point x="125" y="231"/>
      <point x="134" y="242"/>
      <point x="134" y="254" type="curve" smooth="yes"/>
      <point x="134" y="258"/>
      <point x="133" y="262"/>
      <point x="131" y="266" type="curve" smooth="yes"/>
      <point x="117" y="288"/>
      <point x="111" y="308"/>
      <point x="111" y="328" type="curve" smooth="yes"/>
      <point x="111" y="376"/>
      <point x="144" y="417"/>
      <point x="199" y="417" type="curve" smooth="yes"/>
      <point x="263" y="417"/>
      <point x="304" y="373"/>
      <point x="335" y="315" type="curve" smooth="yes"/>
      <point x="339" y="308"/>
      <point x="348" y="303"/>
      <point x="355" y="303" type="curve" smooth="yes"/>
      <point x="360" y="303" type="line" smooth="yes"/>
      <point x="367" y="303"/>
      <point x="376" y="308"/>
      <point x="380" y="315" type="curve" smooth="yes"/>
      <point x="414" y="373"/>
      <point x="448" y="416"/>
      <point x="508" y="416" type="curve" smooth="yes"/>
      <point x="565" y="416"/>
      <point x="601" y="375"/>
      <point x="601" y="312" type="curve" smooth="yes"/>
      <point x="601" y="258"/>
      <point x="567" y="188"/>
      <point x="510" y="137" type="curve"/>
      <point x="461" y="194"/>
      <point x="400" y="225"/>
      <point x="335" y="225" type="curve" smooth="yes"/>
      <point x="242" y="225"/>
      <point x="207" y="167"/>
      <point x="207" y="122" type="curve" smooth="yes"/>
      <point x="207" y="76"/>
      <point x="242" y="20"/>
      <point x="336" y="20" type="curve" smooth="yes"/>
      <point x="398" y="20"/>
      <point x="454" y="41"/>
      <point x="500" y="72" type="curve"/>
      <point x="519" y="43"/>
      <point x="536" y="9"/>
      <point x="549" y="-30" type="curve" smooth="yes"/>
      <point x="552" y="-40"/>
      <point x="562" y="-46"/>
      <point x="571" y="-46" type="curve" smooth="yes"/>
      <point x="584" y="-46"/>
      <point x="594" y="-34"/>
    </contour>
    <contour>
      <point x="336" y="66" type="curve" smooth="yes"/>
      <point x="284" y="66"/>
      <point x="253" y="92"/>
      <point x="253" y="122" type="curve" smooth="yes"/>
      <point x="253" y="151"/>
      <point x="284" y="179"/>
      <point x="335" y="179" type="curve" smooth="yes"/>
      <point x="385" y="179"/>
      <point x="433" y="154"/>
      <point x="473" y="108" type="curve"/>
      <point x="434" y="83"/>
      <point x="387" y="66"/>
    </contour>
  </outline>
</glyph>
<glyph name="knRA.base" format="1">
  <advance width="648"/>
  <outline>
    <contour>
      <point x="338" y="-4" type="curve" smooth="yes"/>
      <point x="483" y="-4"/>
      <point x="572" y="95"/>
      <point x="572" y="223" type="curve" smooth="yes"/>
      <point x="572" y="299"/>
      <point x="535" y="371"/>
      <point x="474" y="414" type="curve"/>
      <point x="481" y="418"/>
      <point x="485" y="425"/>
      <point x="485" y="433" type="curve" smooth="yes"/>
      <point x="485" y="445"/>
      <point x="474" y="456"/>
      <point x="462" y="456" type="curve" smooth="yes"/>
      <point x="94" y="456" type="line" smooth="yes"/>
      <point x="82" y="456"/>
      <point x="71" y="445"/>
      <point x="71" y="433" type="curve" smooth="yes"/>
      <point x="71" y="421"/>
      <point x="82" y="410"/>
      <point x="94" y="410" type="curve" smooth="yes"/>
      <point x="198" y="410" type="line"/>
      <point x="138" y="367"/>
      <point x="101" y="297"/>
      <point x="101" y="223" type="curve" smooth="yes"/>
      <point x="101" y="93"/>
      <point x="194" y="-4"/>
    </contour>
    <contour>
      <point x="147" y="223" type="curve" smooth="yes"/>
      <point x="147" y="322"/>
      <point x="230" y="410"/>
      <point x="340" y="410" type="curve" smooth="yes"/>
      <point x="450" y="410"/>
      <point x="526" y="320"/>
      <point x="526" y="223" type="curve" smooth="yes"/>
      <point x="526" y="121"/>
      <point x="453" y="42"/>
      <point x="338" y="42" type="curve" smooth="yes"/>
      <point x="224" y="42"/>
      <point x="147" y="119"/>
    </contour>
  </outline>
</glyph>
<glyph name="knYAc2" format="1">
  <advance width="192"/>
  <outline>
    <contour>
      <point x="-147" y="-121" type="curve" smooth="yes"/>
      <point x="-158" y="-121"/>
      <point x="-168" y="-131"/>
      <point x="-168" y="-142" type="curve" smooth="yes"/>
      <point x="-168" y="-153"/>
      <point x="-158" y="-163"/>
      <point x="-147" y="-163" type="curve" smooth="yes"/>
      <point x="-102" y="-163"/>
      <point x="-79" y="-178"/>
      <point x="-79" y="-207" type="curve" smooth="yes"/>
      <point x="-79" y="-233"/>
      <point x="-94" y="-250"/>
      <point x="-94" y="-280" type="curve" smooth="yes"/>
      <point x="-94" y="-324"/>
      <point x="-71" y="-379"/>
      <point x="34" y="-379" type="curve" smooth="yes"/>
      <point x="37" y="-379" type="line" smooth="yes"/>
      <point x="140" y="-378"/>
      <point x="171" y="-330"/>
      <point x="171" y="-268" type="curve" smooth="yes"/>
      <point x="171" y="-228"/>
      <point x="154" y="-183"/>
      <point x="99" y="-111" type="curve" smooth="yes"/>
      <point x="73" y="-78"/>
      <point x="54" y="-47"/>
      <point x="54" y="-15" type="curve" smooth="yes"/>
      <point x="54" y="12"/>
      <point x="72" y="33"/>
      <point x="103" y="33" type="curve" smooth="yes"/>
      <point x="118" y="33"/>
      <point x="126" y="31"/>
      <point x="134" y="28" type="curve" smooth="yes"/>
      <point x="142" y="25"/>
      <point x="147" y="23"/>
      <point x="152" y="23" type="curve" smooth="yes"/>
      <point x="160" y="23"/>
      <point x="171" y="32"/>
      <point x="171" y="43" type="curve" smooth="yes"/>
      <point x="171" y="51"/>
      <point x="166" y="61"/>
      <point x="159" y="64" type="curve" smooth="yes"/>
      <point x="143" y="72"/>
      <point x="126" y="75"/>
      <point x="103" y="75" type="curve" smooth="yes"/>
      <point x="46" y="75"/>
      <point x="12" y="36"/>
      <point x="12" y="-15" type="curve" smooth="yes"/>
      <point x="12" y="-55"/>
      <point x="33" y="-94"/>
      <point x="65" y="-137" type="curve" smooth="yes"/>
      <point x="112" y="-197"/>
      <point x="129" y="-234"/>
      <point x="129" y="-268" type="curve" smooth="yes"/>
      <point x="129" y="-310"/>
      <point x="100" y="-336"/>
      <point x="37" y="-337" type="curve" smooth="yes"/>
      <point x="34" y="-337" type="line" smooth="yes"/>
      <point x="-26" y="-337"/>
      <point x="-52" y="-309"/>
      <point x="-52" y="-280" type="curve" smooth="yes"/>
      <point x="-52" y="-250"/>
      <point x="-37" y="-233"/>
      <point x="-37" y="-207" type="curve" smooth="yes"/>
      <point x="-37" y="-160"/>
      <point x="-60" y="-121"/>
    </contour>
  </outline>
</glyph>
<glyph name="macroncmb" format="1">
  <advance width="0"/>
  <outline>
    <contour>
      <point x="92" y="517" type="line" smooth="yes"/>
      <point x="104" y="517"/>
      <point x="114" y="527"/>
      <point x="114" y="539" type="curve" smooth="yes"/>
      <point x="114" y="551"/>
      <point x="104" y="561"/>
      <point x="92" y="561" type="curve" smooth="yes"/>
      <point x="-109" y="561" type="line" smooth="yes"/>
      <point x="-121" y="561"/>
      <point x="-131" y="551"/>
      <point x="-131" y="539" type="curve" smooth="yes"/>
      <point x="-131" y="527"/>
      <point x="-121" y="517"/>
      <point x="-109" y="517" type="curve" smooth="yes"/>
    </contour>
  </outline>
</glyph>
